<svg id="visual" viewBox="0 0 900 600" width="900" height="600" xmlns="http://www.w3.org/2000/svg" xmlns:xlink="http://www.w3.org/1999/xlink" version="1.1"><rect x="0" y="0" width="900" height="600" fill="#6a6363"></rect><defs><linearGradient id="grad1_0" x1="33.3%" y1="0%" x2="100%" y2="100%"><stop offset="20%" stop-color="#6a6363" stop-opacity="1"></stop><stop offset="80%" stop-color="#6a6363" stop-opacity="1"></stop></linearGradient></defs><defs><linearGradient id="grad2_0" x1="0%" y1="0%" x2="66.7%" y2="100%"><stop offset="20%" stop-color="#6a6363" stop-opacity="1"></stop><stop offset="80%" stop-color="#6a6363" stop-opacity="1"></stop></linearGradient></defs><g transform="translate(900, 0)"><path d="M0 459.7C-44.8 405.2 -89.6 350.8 -133.6 322.4C-177.5 294.1 -220.7 291.8 -274.4 274.4C-328 256.9 -392.1 224.2 -424.7 175.9C-457.3 127.7 -458.5 63.8 -459.7 0L0 0Z" fill="#57534e"></path></g><g transform="translate(0, 600)"><path d="M0 -459.7C69.8 -463.6 139.6 -467.5 175.9 -424.7C212.2 -381.9 214.9 -292.4 243.2 -243.2C271.6 -194.1 325.5 -185.4 365.9 -151.5C406.2 -117.7 433 -58.9 459.7 0L0 0Z" fill="#57534e"></path></g></svg>